<svg xmlns="http://www.w3.org/2000/svg" viewBox="0 0 621 716.204">
  <g id="billboard" transform="translate(-480.491 -177.796)">
    <g id="leftLeg" transform="translate(588 620)" fill="none">
      <path d="M1.209,18.238,13.64,21.967l14.3-3.729L28,259,0,274Z" stroke="none"/>
      <path d="M 26.93521690368652 19.53240966796875 L 13.89213371276855 22.93496704101563 L 13.6208667755127 23.00570678710938 L 13.35233306884766 22.9251708984375 L 2.202844619750977 19.58029174804688 L 1.007938385009766 272.3255615234375 L 26.99983787536621 258.4013366699219 L 26.93521690368652 19.53240966796875 M 1.20916748046875 18.2381591796875 L 13.63969993591309 21.96734619140625 L 27.93486595153809 18.2381591796875 L 28 258.9999694824219 L 0 273.9999694824219 L 1.20916748046875 18.2381591796875 Z" stroke="none" fill="#fff"/>
    </g>
    <g id="rightLeg" transform="translate(976 439)" fill="none">
      <path d="M2.472,19.243,27.789,5.777,28,257,0,274Z" stroke="none"/>
      <path d="M 26.79052925109863 7.440704345703125 L 3.466434478759766 19.84713745117188 L 1.01740837097168 272.21240234375 L 26.99952697753906 256.4375305175781 L 26.79052925109863 7.440704345703125 M 27.78913307189941 5.77685546875 L 28 257 L 0 274 L 2.472232818603516 19.24331665039063 L 27.78913307189941 5.77685546875 Z" stroke="none" fill="#fff"/>
    </g>
    <g id="board">
      <g id="Path_1" data-name="Path 1" transform="translate(478.18 411.468) rotate(-25)" fill="none">
        <path d="M118.547,5.47l422.1,2.606a24,24,0,0,1,24,24L475.591,230.824a24,24,0,0,1-24,24L24,264A24,24,0,0,1,0,240L94.547,29.47A24,24,0,0,1,118.547,5.47Z" stroke="none"/>
        <path d="M 118.5405883789063 6.469696044921875 L 118.541259765625 6.469696044921875 C 115.4378356933594 6.470428466796875 112.4275512695313 7.07843017578125 109.5943603515625 8.276763916015625 C 106.8556518554688 9.43511962890625 104.3958740234375 11.0936279296875 102.283203125 13.2061767578125 C 100.170654296875 15.31883239746094 98.51214599609375 17.77862548828125 97.35379028320313 20.517333984375 C 96.15472412109375 23.35226440429688 95.54672241210938 26.3642578125 95.54672241210938 29.46969604492188 L 95.54672241210938 29.68389892578125 L 95.45892333984375 29.87933349609375 L 1.0009765625 240.2120208740234 C 1.02801513671875 243.2425537109375 1.63531494140625 246.1819458007813 2.80706787109375 248.9523315429688 C 3.9654541015625 251.6910400390625 5.6239013671875 254.1508331298828 7.73651123046875 256.2634887695313 C 9.84912109375 258.3760375976563 12.3089599609375 260.0345458984375 15.04766845703125 261.1929016113281 C 17.8792724609375 262.3905944824219 20.8873291015625 262.9985656738281 23.97857666015625 263.0001831054688 L 451.5692749023438 253.8249816894531 L 451.5800170898438 253.8247680664063 L 451.5906982421875 253.8247680664063 C 454.6961364746094 253.8247680664063 457.7080688476563 253.2167663574219 460.5429992675781 252.0176849365234 C 463.2817077636719 250.8592529296875 465.7415161132813 249.20068359375 467.8541259765625 247.0880432128906 C 469.966796875 244.9754028320313 471.6253051757813 242.5155487060547 472.7836303710938 239.7768249511719 C 473.9827270507813 236.9418334960938 474.5906982421875 233.9298400878906 474.5906982421875 230.8244018554688 L 474.5906982421875 230.6106262207031 L 474.6781616210938 230.4154663085938 L 563.6424560546875 31.86434936523438 C 563.6154174804688 28.83383178710938 563.0081176757813 25.89407348632813 561.8363647460938 23.12368774414063 C 560.677978515625 20.38504028320313 559.01953125 17.92518615722656 556.9068603515625 15.8126220703125 C 554.7943115234375 13.70004272460938 552.3344116210938 12.04153442382813 549.595703125 10.88311767578125 C 546.7608642578125 9.684112548828125 543.7488403320313 9.07611083984375 540.6434326171875 9.07611083984375 L 540.640380859375 9.07611083984375 L 540.6372680664063 9.07611083984375 L 118.5405883789063 6.469696044921875 M 118.5467224121094 5.469696044921875 L 540.6434326171875 8.07611083984375 C 553.898193359375 8.07611083984375 564.6434326171875 18.82119750976563 564.6434326171875 32.0760498046875 L 475.5906982421875 230.8244018554688 C 475.5906982421875 244.0792541503906 464.8455200195313 254.8247680664063 451.5906982421875 254.8247680664063 L 24 263.9999694824219 C 10.7451171875 263.9999694824219 0 253.2548370361328 0 239.9999694824219 L 94.54672241210938 29.46969604492188 C 94.54672241210938 16.21482849121094 105.2918701171875 5.469696044921875 118.5467224121094 5.469696044921875 Z" stroke="none" fill="#fff"/>
      </g>
      <g id="Path_2" data-name="Path 2" transform="translate(515.055 418.049) rotate(-25)" fill="none">
        <path d="M105.376,5.47l375.2,2.2c11.782,0,21.333,9.049,21.333,20.212L422.75,195.257c0,11.163-9.551,20.212-21.333,20.212L21.333,223.2C9.551,223.2,0,214.148,0,202.985l84.042-177.3C84.042,14.519,93.593,5.47,105.376,5.47Z" stroke="none"/>
        <path d="M 105.3697509765625 6.469650268554688 L 105.3704223632813 6.469650268554688 C 102.6202087402344 6.47027587890625 99.95343017578125 6.980514526367188 97.44363403320313 7.98626708984375 C 95.02081298828125 8.9571533203125 92.8455810546875 10.34646606445313 90.97833251953125 12.11558532714844 C 89.11483764648438 13.88108825683594 87.6524658203125 15.93559265136719 86.6317138671875 18.22203063964844 C 85.576904296875 20.58477783203125 85.04208374023438 23.09458923339844 85.04208374023438 25.68183898925781 L 85.04208374023438 25.90682983398438 L 84.94570922851563 26.11015319824219 L 1.0013427734375 203.20703125 C 1.03106689453125 205.7158660888672 1.565032958984375 208.1495361328125 2.589630126953125 210.4446411132813 C 3.610321044921875 212.7310791015625 5.07275390625 214.7855834960938 6.936187744140625 216.5510864257813 C 8.80352783203125 218.3202056884766 10.97869873046875 219.7095184326172 13.40151977539063 220.6804046630859 C 15.90960693359375 221.6854858398438 18.57455444335938 222.1957092285156 21.31320190429688 222.1972045898438 L 401.3965759277344 214.4700927734375 L 401.4067077636719 214.4698944091797 L 401.4169006347656 214.4698944091797 C 404.1688842773438 214.4698944091797 406.8375854492188 213.9596557617188 409.3488159179688 212.9532165527344 C 411.7716369628906 211.9823303222656 413.9468383789063 210.5929565429688 415.8141479492188 208.8238372802734 C 417.6775817871094 207.0582733154297 419.1400146484375 205.0037078857422 420.1607055664063 202.7172698974609 C 421.2155151367188 200.3545227050781 421.7503356933594 197.8446502685547 421.7503356933594 195.2574005126953 L 421.7503356933594 195.0328369140625 L 421.8463134765625 194.8298950195313 L 500.9075622558594 27.65510559082031 C 500.8778991699219 25.1461181640625 500.3439331054688 22.7122802734375 499.3192749023438 20.41702270507813 C 498.298583984375 18.13064575195313 496.8361511230469 16.07614135742188 494.9727172851563 14.31065368652344 C 493.1054382324219 12.54151916503906 490.9302062988281 11.15226745605469 488.5073852539063 10.181396484375 C 485.9960632324219 9.175018310546875 483.327392578125 8.664779663085938 480.5753784179688 8.664779663085938 L 480.5724487304688 8.664779663085938 L 480.5695190429688 8.664779663085938 L 105.3697509765625 6.469650268554688 M 105.3756408691406 5.469650268554688 L 480.5753784179688 7.664779663085938 C 492.3575744628906 7.664779663085938 501.9089050292969 16.71395874023438 501.9089050292969 27.8768310546875 L 422.7503356933594 195.2574005126953 C 422.7503356933594 206.4202728271484 413.1990051269531 215.4698944091797 401.4169006347656 215.4698944091797 L 21.33352661132813 223.197021484375 C 9.55133056640625 223.197021484375 0 214.147705078125 0 202.9848327636719 L 84.04208374023438 25.68183898925781 C 84.04208374023438 14.51896667480469 93.59344482421875 5.469650268554688 105.3756408691406 5.469650268554688 Z" stroke="none" fill="#fff"/>
      </g>
    </g>
  </g>
</svg>
